<svg width="102" height="26" viewBox="0 0 102 26" fill="none" xmlns="http://www.w3.org/2000/svg">
<path d="M51.2109 20V4H57.8203C59.0182 4 60.0521 4.23437 60.9219 4.70312C61.7969 5.16667 62.4714 5.8151 62.9453 6.64844C63.4193 7.47656 63.6562 8.4401 63.6562 9.53906C63.6562 10.6432 63.4141 11.6094 62.9297 12.4375C62.4453 13.2604 61.7578 13.8984 60.8672 14.3516C59.9818 14.8047 58.9271 15.0312 57.7031 15.0312H55.0781V20H51.2109ZM55.0781 11.9844H56.9844C57.8542 11.9844 58.5156 11.763 58.9688 11.3203C59.4219 10.8724 59.6484 10.2786 59.6484 9.53906C59.6484 8.79427 59.4219 8.20573 58.9688 7.77344C58.5156 7.33594 57.8542 7.11719 56.9844 7.11719H55.0781V11.9844ZM68.5053 20.2031C67.3595 20.2031 66.4142 19.9115 65.6694 19.3281C64.9298 18.7448 64.56 17.8594 64.56 16.6719C64.56 15.7865 64.7631 15.0833 65.1694 14.5625C65.5756 14.0365 66.1173 13.6484 66.7944 13.3984C67.4715 13.1432 68.2136 12.9818 69.0209 12.9141C70.047 12.8255 70.7761 12.7161 71.2084 12.5859C71.6459 12.4557 71.8647 12.2083 71.8647 11.8437V11.8047C71.8647 11.4036 71.7267 11.0937 71.4506 10.875C71.1746 10.6562 70.8022 10.5469 70.3334 10.5469C69.8282 10.5469 69.422 10.6562 69.1147 10.875C68.8074 11.0937 68.6121 11.3958 68.5288 11.7812L65.0053 11.6562C65.1564 10.5625 65.6824 9.65365 66.5834 8.92969C67.4897 8.20573 68.7501 7.84375 70.3647 7.84375C71.3855 7.84375 72.2944 8.0026 73.0913 8.32031C73.8933 8.63281 74.5235 9.08594 74.9819 9.67969C75.4454 10.2734 75.6772 10.9948 75.6772 11.8437V20H72.0834V18.3281H71.9897C71.323 19.5781 70.1616 20.2031 68.5053 20.2031ZM69.685 17.7031C70.2944 17.7031 70.8126 17.5208 71.2397 17.1562C71.672 16.7917 71.8881 16.3177 71.8881 15.7344V14.5937C71.6746 14.7083 71.3725 14.8047 70.9819 14.8828C70.5965 14.9609 70.2267 15.026 69.8725 15.0781C68.7423 15.25 68.1772 15.7187 68.1772 16.4844C68.1772 16.8802 68.3178 17.1823 68.5991 17.3906C68.8803 17.599 69.2423 17.7031 69.685 17.7031ZM83.6147 20.2266C82.3491 20.2266 81.2631 19.9661 80.3569 19.4453C79.4558 18.9193 78.7631 18.1927 78.2787 17.2656C77.7944 16.3333 77.5522 15.2578 77.5522 14.0391C77.5522 12.8099 77.7944 11.7318 78.2787 10.8047C78.7631 9.8724 79.4584 9.14583 80.3647 8.625C81.2709 8.10417 82.3517 7.84375 83.6069 7.84375C84.7215 7.84375 85.6902 8.04427 86.5131 8.44531C87.336 8.84635 87.9793 9.41406 88.4428 10.1484C88.9116 10.8776 89.159 11.7344 89.185 12.7188H85.6147C85.5418 12.1042 85.3334 11.6224 84.9897 11.2734C84.6511 10.9245 84.2084 10.75 83.6616 10.75C82.9949 10.75 82.4584 11.0286 82.0522 11.5859C81.6459 12.138 81.4428 12.9427 81.4428 14C81.4428 15.0677 81.6433 15.8802 82.0444 16.4375C82.4506 16.9896 82.9897 17.2656 83.6616 17.2656C84.1876 17.2656 84.6277 17.0964 84.9819 16.7578C85.336 16.4193 85.547 15.9323 85.6147 15.2969H89.185C89.1537 16.2865 88.909 17.151 88.4506 17.8906C87.9923 18.6302 87.3517 19.2057 86.5287 19.6172C85.711 20.0234 84.7397 20.2266 83.6147 20.2266ZM97.9135 8V10.8125H95.7495V16.2266C95.7495 16.5807 95.8328 16.8307 95.9995 16.9766C96.1713 17.1172 96.4109 17.1875 96.7182 17.1875C96.864 17.1875 97.0177 17.1745 97.1791 17.1484C97.3458 17.1172 97.4708 17.0911 97.5541 17.0703L98.1323 19.8281C97.95 19.8802 97.6948 19.9427 97.3666 20.0156C97.0385 20.0938 96.6427 20.1458 96.1791 20.1719C94.8302 20.2344 93.7807 19.9661 93.0307 19.3672C92.2859 18.7682 91.9187 17.862 91.9291 16.6484V10.8125H90.3432V8H91.9291V5.125H95.7495V8H97.9135Z" fill="black"/>
<path fill-rule="evenodd" clip-rule="evenodd" d="M0 0H42V20H7L0 26V20V0ZM7 7H35V13H7V7Z" fill="#0066FF"/>
</svg>
