<svg width="112" height="78" viewBox="0 0 112 78" fill="none" xmlns="http://www.w3.org/2000/svg">
<path d="M108.835 39.7248C110.944 39.7248 112 42.1263 112 46.9284C111.768 50.3429 110.534 53.6452 108.425 56.5068C105.855 60.329 102.622 63.7653 98.8442 66.6842C94.9133 69.7678 90.5014 72.325 85.7464 74.2801C81.359 76.1771 76.5578 77.1934 71.6821 77.2563C65.4704 77.2563 61.3099 72.4017 59.2006 62.6917C56.1619 67.1144 52.0341 70.8624 47.1284 73.6529C41.1464 76.7712 34.273 78.2694 27.3507 77.9602C23.6685 78.1023 19.9927 77.5598 16.5583 76.3692C13.123 75.1777 10.0035 73.3655 7.39682 71.0432C4.95353 68.8669 3.03756 66.2628 1.76782 63.3988C0.498066 60.5348 -0.0991409 57.4706 0.013403 54.3927C0.013403 36.6445 6.63534 22.6554 19.8792 12.4231C24.4436 8.70423 29.7913 5.82975 35.6136 3.9675C40.5946 2.59281 45.7815 1.9083 50.9967 1.9301C55.5674 1.79933 60.1028 2.69693 64.1816 4.53981C65.8225 1.51436 67.6967 0 69.8069 0C72.0179 0.0653846 74.1934 0.520701 76.2047 1.33922C78.2169 2.16016 80.0257 3.32655 81.5269 4.77551C84.6046 6.96064 86.585 10.1419 87.0361 13.625C84.9259 17.8775 82.5181 22.0088 79.8279 25.9956C78.7451 32.685 78.275 39.4398 78.4211 46.1978C78.4211 54.8964 79.6518 59.2473 82.1132 59.2473C85.1601 59.2473 92.5444 53.818 104.264 42.9609C106.374 40.8032 107.898 39.7248 108.835 39.7248ZM25.8567 49.2233C25.8567 57.2623 29.1967 61.2823 35.8768 61.2823C43.026 61.1782 48.9446 57.7854 53.6333 51.1041C55.4358 48.4758 56.7972 45.6255 57.6767 42.6461C57.4834 32.5341 58.6642 22.439 61.1928 12.5789C51.7019 14.249 43.0351 18.5208 36.405 24.7937C32.9071 28.0355 30.1724 31.8665 28.3608 36.0608C26.5492 40.2559 25.6979 44.7327 25.8567 49.2233Z" fill="url(#paint0_linear_2066_830)"/>
<path d="M108.835 39.7248C110.944 39.7248 112 42.1263 112 46.9284C111.768 50.3429 110.534 53.6452 108.425 56.5068C105.855 60.329 102.622 63.7653 98.8442 66.6842C94.9133 69.7678 90.5014 72.325 85.7464 74.2801C81.359 76.1771 76.5578 77.1934 71.6821 77.2563C65.4704 77.2563 61.3099 72.4017 59.2006 62.6917C56.1619 67.1144 52.0341 70.8624 47.1284 73.6529C41.1464 76.7712 34.273 78.2694 27.3507 77.9602C23.6685 78.1023 19.9927 77.5598 16.5583 76.3692C13.123 75.1777 10.0035 73.3655 7.39682 71.0432C4.95353 68.8669 3.03756 66.2628 1.76782 63.3988C0.498066 60.5348 -0.0991409 57.4706 0.013403 54.3927C0.013403 36.6445 6.63534 22.6554 19.8792 12.4231C24.4436 8.70423 29.7913 5.82975 35.6136 3.9675C40.5946 2.59281 45.7815 1.9083 50.9967 1.9301C55.5674 1.79933 60.1028 2.69693 64.1816 4.53981C65.8225 1.51436 67.6967 0 69.8069 0C72.0179 0.0653846 74.1934 0.520701 76.2047 1.33922C78.2169 2.16016 80.0257 3.32655 81.5269 4.77551C84.6046 6.96064 86.585 10.1419 87.0361 13.625C84.9259 17.8775 82.5181 22.0088 79.8279 25.9956C78.7451 32.685 78.275 39.4398 78.4211 46.1978C78.4211 54.8964 79.6518 59.2473 82.1132 59.2473C85.1601 59.2473 92.5444 53.818 104.264 42.9609C106.374 40.8032 107.898 39.7248 108.835 39.7248ZM25.8567 49.2233C25.8567 57.2623 29.1967 61.2823 35.8768 61.2823C43.026 61.1782 48.9446 57.7854 53.6333 51.1041C55.4358 48.4758 56.7972 45.6255 57.6767 42.6461C57.4834 32.5341 58.6642 22.439 61.1928 12.5789C51.7019 14.249 43.0351 18.5208 36.405 24.7937C32.9071 28.0355 30.1724 31.8665 28.3608 36.0608C26.5492 40.2559 25.6979 44.7327 25.8567 49.2233Z" fill="black" fill-opacity="0.2"/>
<defs>
<linearGradient id="paint0_linear_2066_830" x1="-8.88889" y1="62.1563" x2="104.245" y2="55.5286" gradientUnits="userSpaceOnUse">
<stop stop-color="#192738"/>
<stop offset="1" stop-color="#24588E"/>
</linearGradient>
</defs>
</svg>
