<svg width="84" height="84" viewBox="0 0 84 84" fill="none" xmlns="http://www.w3.org/2000/svg">
<path d="M44 17.75H42.9425L41.8125 15.025L42.5625 14.275C43.2655 13.5718 43.6604 12.6181 43.6604 11.6237C43.6604 10.6294 43.2655 9.67573 42.5625 8.9725L39.025 5.4375C38.3218 4.73448 37.3681 4.33955 36.3737 4.33955C35.3794 4.33955 34.4257 4.73448 33.7225 5.4375L32.9725 6.1875L30.25 5.0575V4C30.25 3.00544 29.8549 2.05161 29.1516 1.34835C28.4484 0.645088 27.4946 0.25 26.5 0.25H21.5C20.5054 0.25 19.5516 0.645088 18.8483 1.34835C18.1451 2.05161 17.75 3.00544 17.75 4V5.0575L15.025 6.1875L14.275 5.4375C13.5718 4.73448 12.6181 4.33955 11.6237 4.33955C10.6294 4.33955 9.67573 4.73448 8.9725 5.4375L5.44 8.975C4.73698 9.67823 4.34205 10.6319 4.34205 11.6262C4.34205 12.6206 4.73698 13.5743 5.44 14.2775L6.19 15.0275L5.0575 17.75H4C3.00544 17.75 2.05161 18.1451 1.34835 18.8483C0.645088 19.5516 0.25 20.5054 0.25 21.5V26.5C0.25 27.4946 0.645088 28.4484 1.34835 29.1516C2.05161 29.8549 3.00544 30.25 4 30.25H5.0575L6.1875 32.975L5.4375 33.725C4.73448 34.4282 4.33955 35.3819 4.33955 36.3762C4.33955 37.3706 4.73448 38.3243 5.4375 39.0275L8.975 42.56C9.67823 43.263 10.6319 43.6579 11.6262 43.6579C12.6206 43.6579 13.5743 43.263 14.2775 42.56L15.0275 41.81L17.7525 42.94V44C17.7525 44.9941 18.1472 45.9476 18.85 46.6508C19.5527 47.354 20.5059 47.7493 21.5 47.75H26.5C27.4946 47.75 28.4484 47.3549 29.1516 46.6516C29.8549 45.9484 30.25 44.9946 30.25 44V42.9425L32.975 41.8125L33.725 42.5625C34.4282 43.2655 35.3819 43.6604 36.3762 43.6604C37.3706 43.6604 38.3243 43.2655 39.0275 42.5625L42.565 39.0275C43.268 38.3243 43.6629 37.3706 43.6629 36.3762C43.6629 35.3819 43.268 34.4282 42.565 33.725L41.815 32.975L42.945 30.25H44C44.9946 30.25 45.9484 29.8549 46.6516 29.1516C47.3549 28.4484 47.75 27.4946 47.75 26.5V21.5C47.75 20.5054 47.3549 19.5516 46.6516 18.8483C45.9484 18.1451 44.9946 17.75 44 17.75ZM24 32.75C22.8509 32.75 21.7131 32.5237 20.6515 32.0839C19.5899 31.6442 18.6253 30.9997 17.8128 30.1872C17.0003 29.3747 16.3558 28.4101 15.9161 27.3485C15.4763 26.2869 15.25 25.1491 15.25 24C15.25 22.8509 15.4763 21.7131 15.9161 20.6515C16.3558 19.5899 17.0003 18.6253 17.8128 17.8128C18.6253 17.0003 19.5899 16.3558 20.6515 15.9161C21.7131 15.4763 22.8509 15.25 24 15.25C26.3206 15.25 28.5462 16.1719 30.1872 17.8128C31.8281 19.4538 32.75 21.6794 32.75 24C32.75 26.3206 31.8281 28.5462 30.1872 30.1872C28.5462 31.8281 26.3206 32.75 24 32.75Z" fill="url(#paint0_linear_2137_50)"/>
<path d="M79.75 53.5H78.6925L77.5625 50.775L78.3125 50.025C79.0155 49.3218 79.4104 48.3681 79.4104 47.3737C79.4104 46.3794 79.0155 45.4257 78.3125 44.7225L74.775 41.1875C74.0718 40.4845 73.1181 40.0896 72.1237 40.0896C71.1294 40.0896 70.1757 40.4845 69.4725 41.1875L68.7225 41.9375L66 40.8075V39.75C66 38.7554 65.6049 37.8016 64.9016 37.0983C64.1984 36.3951 63.2446 36 62.25 36H57.25C56.2554 36 55.3016 36.3951 54.5983 37.0983C53.8951 37.8016 53.5 38.7554 53.5 39.75V40.8075L50.775 41.9375L50.025 41.1875C49.3218 40.4845 48.3681 40.0896 47.3737 40.0896C46.3794 40.0896 45.4257 40.4845 44.7225 41.1875L41.19 44.725C40.487 45.4282 40.0921 46.3819 40.0921 47.3762C40.0921 48.3706 40.487 49.3243 41.19 50.0275L41.94 50.7775L40.8075 53.5H39.75C38.7554 53.5 37.8016 53.8951 37.0983 54.5983C36.3951 55.3016 36 56.2554 36 57.25V62.25C36 63.2446 36.3951 64.1984 37.0983 64.9016C37.8016 65.6049 38.7554 66 39.75 66H40.8075L41.9375 68.725L41.1875 69.475C40.4845 70.1782 40.0896 71.1319 40.0896 72.1262C40.0896 73.1206 40.4845 74.0743 41.1875 74.7775L44.725 78.31C45.4282 79.013 46.3819 79.4079 47.3762 79.4079C48.3706 79.4079 49.3243 79.013 50.0275 78.31L50.7775 77.56L53.5025 78.69V79.75C53.5025 80.7441 53.8972 81.6976 54.6 82.4008C55.3027 83.104 56.2559 83.4993 57.25 83.5H62.25C63.2446 83.5 64.1984 83.1049 64.9016 82.4016C65.6049 81.6984 66 80.7446 66 79.75V78.6925L68.725 77.5625L69.475 78.3125C70.1782 79.0155 71.1319 79.4104 72.1262 79.4104C73.1206 79.4104 74.0743 79.0155 74.7775 78.3125L78.315 74.7775C79.018 74.0743 79.4129 73.1206 79.4129 72.1262C79.4129 71.1319 79.018 70.1782 78.315 69.475L77.565 68.725L78.695 66H79.75C80.7446 66 81.6984 65.6049 82.4016 64.9016C83.1049 64.1984 83.5 63.2446 83.5 62.25V57.25C83.5 56.2554 83.1049 55.3016 82.4016 54.5983C81.6984 53.8951 80.7446 53.5 79.75 53.5ZM59.75 68.5C58.6009 68.5 57.4631 68.2737 56.4015 67.8339C55.3399 67.3942 54.3753 66.7497 53.5628 65.9372C52.7503 65.1247 52.1058 64.1601 51.6661 63.0985C51.2263 62.0369 51 60.8991 51 59.75C51 58.6009 51.2263 57.4631 51.6661 56.4015C52.1058 55.3399 52.7503 54.3753 53.5628 53.5628C54.3753 52.7503 55.3399 52.1058 56.4015 51.6661C57.4631 51.2263 58.6009 51 59.75 51C62.0706 51 64.2962 51.9219 65.9372 53.5628C67.5781 55.2038 68.5 57.4294 68.5 59.75C68.5 62.0706 67.5781 64.2962 65.9372 65.9372C64.2962 67.5781 62.0706 68.5 59.75 68.5Z" fill="url(#paint1_linear_2137_50)"/>
<defs>
<linearGradient id="paint0_linear_2137_50" x1="-3.51984" y1="38.1016" x2="44.5459" y2="36.1406" gradientUnits="userSpaceOnUse">
<stop stop-color="#192738"/>
<stop offset="1" stop-color="#24588E"/>
</linearGradient>
<linearGradient id="paint1_linear_2137_50" x1="32.2302" y1="73.8516" x2="80.2959" y2="71.8906" gradientUnits="userSpaceOnUse">
<stop stop-color="#192738"/>
<stop offset="1" stop-color="#24588E"/>
</linearGradient>
</defs>
</svg>
