<svg width="109" height="87" viewBox="0 0 109 87" fill="none" xmlns="http://www.w3.org/2000/svg">
<g clip-path="url(#clip0_2036_41)">
<path d="M43.4348 44.4601C44.4992 45.5221 46.2245 45.5221 47.289 44.4601L49.2152 42.5382C50.2797 41.4762 50.2797 39.7549 49.2152 38.6929L43.1316 32.625L49.2135 26.5554C50.2779 25.4934 50.2779 23.7721 49.2135 22.7101L47.2873 20.7882C46.2228 19.7262 44.4975 19.7262 43.4331 20.7882L33.4971 30.7015C32.4326 31.7635 32.4326 33.4848 33.4971 34.5468L43.4348 44.4601ZM59.7865 42.5399L61.7127 44.4618C62.7772 45.5238 64.5025 45.5238 65.5669 44.4618L75.5029 34.5485C76.5674 33.4865 76.5674 31.7652 75.5029 30.7032L65.5669 20.7899C64.5025 19.7279 62.7772 19.7279 61.7127 20.7899L59.7865 22.7118C58.722 23.7738 58.722 25.4951 59.7865 26.5571L65.8684 32.625L59.7865 38.6946C58.722 39.7566 58.722 41.4779 59.7865 42.5399ZM106.275 70.6875H64.981C64.855 74.0537 62.4757 76.125 59.405 76.125H49.05C45.8669 76.125 43.4263 73.1565 43.4689 70.6875H2.725C1.22625 70.6875 0 71.9109 0 73.4062V76.125C0 82.1063 4.905 87 10.9 87H98.1C104.095 87 109 82.1063 109 76.125V73.4062C109 71.9109 107.774 70.6875 106.275 70.6875ZM98.1 8.15625C98.1 3.67031 94.4212 0 89.925 0H19.075C14.5787 0 10.9 3.67031 10.9 8.15625V65.25H98.1V8.15625ZM87.2 54.375H21.8V10.875H87.2V54.375Z" fill="url(#paint0_linear_2036_41)"/>
<path d="M43.4348 44.4601C44.4992 45.5221 46.2245 45.5221 47.289 44.4601L49.2152 42.5382C50.2797 41.4762 50.2797 39.7549 49.2152 38.6929L43.1316 32.625L49.2135 26.5554C50.2779 25.4934 50.2779 23.7721 49.2135 22.7101L47.2873 20.7882C46.2228 19.7262 44.4975 19.7262 43.4331 20.7882L33.4971 30.7015C32.4326 31.7635 32.4326 33.4848 33.4971 34.5468L43.4348 44.4601ZM59.7865 42.5399L61.7127 44.4618C62.7772 45.5238 64.5025 45.5238 65.5669 44.4618L75.5029 34.5485C76.5674 33.4865 76.5674 31.7652 75.5029 30.7032L65.5669 20.7899C64.5025 19.7279 62.7772 19.7279 61.7127 20.7899L59.7865 22.7118C58.722 23.7738 58.722 25.4951 59.7865 26.5571L65.8684 32.625L59.7865 38.6946C58.722 39.7566 58.722 41.4779 59.7865 42.5399ZM106.275 70.6875H64.981C64.855 74.0537 62.4757 76.125 59.405 76.125H49.05C45.8669 76.125 43.4263 73.1565 43.4689 70.6875H2.725C1.22625 70.6875 0 71.9109 0 73.4062V76.125C0 82.1063 4.905 87 10.9 87H98.1C104.095 87 109 82.1063 109 76.125V73.4062C109 71.9109 107.774 70.6875 106.275 70.6875ZM98.1 8.15625C98.1 3.67031 94.4212 0 89.925 0H19.075C14.5787 0 10.9 3.67031 10.9 8.15625V65.25H98.1V8.15625ZM87.2 54.375H21.8V10.875H87.2V54.375Z" fill="black" fill-opacity="0.2"/>
</g>
<defs>
<linearGradient id="paint0_linear_2036_41" x1="-8.65079" y1="69.3281" x2="101.543" y2="63.6956" gradientUnits="userSpaceOnUse">
<stop stop-color="#192738"/>
<stop offset="1" stop-color="#24588E"/>
</linearGradient>
<clipPath id="clip0_2036_41">
<rect width="109" height="87" fill="white"/>
</clipPath>
</defs>
</svg>
