<svg width="160" height="35" viewBox="0 0 160 35" fill="none"
	xmlns="http://www.w3.org/2000/svg">
	<path d="M15.7755 35C7.44225 35 2.14882 31.6522 0 25.0072H6.97056C8.49045 27.6956 11.4254 29.0653 15.7755 29.0653C17.9768 29.0653 19.7587 28.6594 21.0689 27.8985C22.4316 27.0869 23.1129 26.0218 23.1129 24.7029C23.1129 23.4856 22.6411 22.5725 21.7503 21.9131C20.8068 21.2537 19.3394 20.8478 17.2954 20.645L11.3206 20.0869C7.75671 19.7826 5.18861 18.7681 3.51149 17.0941C1.83436 15.3696 0.995794 13.1884 0.995794 10.5507C0.995794 7.40579 2.25364 4.86956 4.76933 2.89131C7.28502 0.963769 10.6393 0 14.8321 0C18.8676 0 22.2219 0.963769 24.8424 2.89131C27.463 4.81884 29.2449 7.2029 30.1883 9.99275H23.2177C22.6411 8.77537 21.5406 7.81159 19.9684 7.05072C18.396 6.28985 16.6665 5.93478 14.7273 5.93478C12.526 5.93478 10.8489 6.34059 9.64347 7.2029C8.43804 8.06522 7.86153 9.07971 7.86153 10.3478C7.86153 12.529 9.53865 13.8478 12.8405 14.2029L19.2345 14.8116C22.5888 15.1666 25.2093 16.1812 27.0961 17.9059C28.9828 19.6304 29.9786 21.8116 29.9786 24.4493C29.9786 27.3913 28.7208 29.8768 26.2575 31.9565C23.7419 33.9856 20.2303 35 15.7755 35Z" fill="black"/>
	<path d="M41.8369 0V35H34.7139V0H41.8369Z" fill="black"/>
	<path d="M75.8715 10.3478C75.8715 13.3406 74.8138 15.826 72.7513 17.8044C70.6888 19.7826 67.6743 20.7463 63.708 20.7463H53.2896V35H46.3616V0H63.708C67.6743 0 70.7416 0.963768 72.7513 2.94203C74.8138 4.92029 75.8715 7.35507 75.8715 10.3478ZM53.2896 5.93478V14.8116H63.232C64.9771 14.8116 66.4052 14.4059 67.4098 13.5942C68.4147 12.7826 68.9436 11.7174 68.9436 10.3478C68.9436 8.97826 68.4677 7.91304 67.4098 7.10144C66.4052 6.28985 65.03 5.88406 63.232 5.88406H53.2896V5.93478Z" fill="black"/>
	<path d="M80.3975 20.2391V0H87.3544V20.1884C87.3544 23.0797 88.0979 25.2609 89.638 26.7826C91.125 28.3044 93.2492 29.0653 95.7983 29.0653C95.8514 29.0653 96.5418 29.0653 96.5949 29.0653C99.4095 29.0653 101.268 28.3044 102.755 26.7826C104.242 25.2609 104.986 23.0797 104.986 20.1884V0H111.943V20.2391C111.943 24.9059 110.562 28.5072 107.747 31.145C104.986 33.7319 101.374 35 96.5949 35C96.5418 35 95.8514 35 95.7983 35C91.125 35 87.4075 33.6812 84.5929 31.145C81.7782 28.558 80.3975 24.9059 80.3975 20.2391Z" fill="black"/>
	<path d="M141.736 0H148.69L148.478 35H140.94L123.421 10.0435V35H116.467V0H124.005L141.524 24.9565L141.736 0Z" fill="black"/>
	<path d="M160 0V35H153.216V0H160Z" fill="black"/>
</svg>
