<svg width="98" height="101" viewBox="0 0 98 101" fill="none" xmlns="http://www.w3.org/2000/svg">
<path d="M5.61168 18.6064H41.0332V26.1001C41.0335 27.6443 42.2854 28.896 43.8299 28.8965C47.9486 28.8965 51.2878 32.2352 51.2878 36.3536C51.2878 40.4721 47.9486 43.8107 43.8299 43.8107C42.2854 43.8112 41.0335 45.063 41.0332 46.6072V54.0277H36.0714C34.7632 48.108 29.5597 43.7455 23.337 43.7455C17.1143 43.7455 11.911 48.1079 10.619 53.9411L10.6026 54.0277H5.61168V18.6064Z" fill="url(#paint0_linear_2137_57)"/>
<path d="M5.61168 18.6064H41.0332V26.1001C41.0335 27.6443 42.2854 28.896 43.8299 28.8965C47.9486 28.8965 51.2878 32.2352 51.2878 36.3536C51.2878 40.4721 47.9486 43.8107 43.8299 43.8107C42.2854 43.8112 41.0335 45.063 41.0332 46.6072V54.0277H36.0714C34.7632 48.108 29.5597 43.7455 23.337 43.7455C17.1143 43.7455 11.911 48.1079 10.619 53.9411L10.6026 54.0277H5.61168V18.6064Z" fill="black" fill-opacity="0.2"/>
<path d="M5.59351 59.6205H12.8894C12.9521 59.6246 13.006 59.657 13.0696 59.657C14.6206 59.6337 15.8704 58.3767 15.8812 56.825C15.8917 52.7195 19.2226 49.3941 23.33 49.3941C27.4439 49.3941 30.7788 52.7289 30.7788 56.8421V56.8614C30.7793 58.4057 32.0312 59.6563 33.5755 59.6566C33.6393 59.6566 33.693 59.6244 33.7558 59.6203H41.0187V64.5851C35.1119 65.9094 30.7639 71.1082 30.7639 77.3225C30.7639 82.7007 34.0206 87.3183 38.6696 89.3113L38.7547 89.3437C39.3929 89.6195 40.1495 89.8634 40.9329 90.0363L41.0186 90.0522V95.0414H5.59362L5.59351 59.6205Z" fill="url(#paint1_linear_2137_57)"/>
<path d="M5.59351 59.6205H12.8894C12.9521 59.6246 13.006 59.657 13.0696 59.657C14.6206 59.6337 15.8704 58.3767 15.8812 56.825C15.8917 52.7195 19.2226 49.3941 23.33 49.3941C27.4439 49.3941 30.7788 52.7289 30.7788 56.8421V56.8614C30.7793 58.4057 32.0312 59.6563 33.5755 59.6566C33.6393 59.6566 33.693 59.6244 33.7558 59.6203H41.0187V64.5851C35.1119 65.9094 30.7639 71.1082 30.7639 77.3225C30.7639 82.7007 34.0206 87.3183 38.6696 89.3113L38.7547 89.3437C39.3929 89.6195 40.1495 89.8634 40.9329 90.0363L41.0186 90.0522V95.0414H5.59362L5.59351 59.6205Z" fill="black" fill-opacity="0.2"/>
<path d="M82.0332 95.0567H46.6117V87.7471C46.6154 87.69 46.6446 87.6426 46.6446 87.5849C46.6236 86.0346 45.367 84.7847 43.8162 84.7739C39.7085 84.7646 36.3809 81.4327 36.3809 77.3238C36.3809 73.2093 39.7166 69.8739 43.8318 69.8739H43.8492C45.3937 69.8734 46.6444 68.6217 46.6448 67.0775C46.6448 67.0202 46.6157 66.9724 46.6122 66.9155V59.6353H51.6006C52.9313 65.5264 58.1207 69.8597 64.3226 69.8597C70.5244 69.8597 75.7139 65.5264 77.028 59.7225L77.0446 59.6354H82.0334L82.0332 95.0567Z" fill="url(#paint2_linear_2137_57)"/>
<path d="M82.0332 95.0567H46.6117V87.7471C46.6154 87.69 46.6446 87.6426 46.6446 87.5849C46.6236 86.0346 45.367 84.7847 43.8162 84.7739C39.7085 84.7646 36.3809 81.4327 36.3809 77.3238C36.3809 73.2093 39.7166 69.8739 43.8318 69.8739H43.8492C45.3937 69.8734 46.6444 68.6217 46.6448 67.0775C46.6448 67.0202 46.6157 66.9724 46.6122 66.9155V59.6353H51.6006C52.9313 65.5264 58.1207 69.8597 64.3226 69.8597C70.5244 69.8597 75.7139 65.5264 77.028 59.7225L77.0446 59.6354H82.0334L82.0332 95.0567Z" fill="black" fill-opacity="0.2"/>
<path d="M88 46.5716H80.513C78.9686 46.5721 77.7167 47.8238 77.7163 49.368C77.7163 53.4865 74.3772 56.8251 70.2584 56.8251C66.1395 56.8251 62.8005 53.4865 62.8005 49.368C62.8001 47.8238 61.5482 46.572 60.0038 46.5716H52.582V41.5809C58.4698 40.2473 62.7999 35.0597 62.7999 28.861C62.7999 22.6622 58.4696 17.4749 52.669 16.1577L52.5816 16.141V11.1503H87.9993L88 46.5716Z" fill="url(#paint3_linear_2137_57)"/>
<path d="M88 46.5716H80.513C78.9686 46.5721 77.7167 47.8238 77.7163 49.368C77.7163 53.4865 74.3772 56.8251 70.2584 56.8251C66.1395 56.8251 62.8005 53.4865 62.8005 49.368C62.8001 47.8238 61.5482 46.572 60.0038 46.5716H52.582V41.5809C58.4698 40.2473 62.7999 35.0597 62.7999 28.861C62.7999 22.6622 58.4696 17.4749 52.669 16.1577L52.5816 16.141V11.1503H87.9993L88 46.5716Z" fill="black" fill-opacity="0.2"/>
<defs>
<linearGradient id="paint0_linear_2137_57" x1="-0.946692" y1="78.0132" x2="82.4462" y2="74.6718" gradientUnits="userSpaceOnUse">
<stop stop-color="#192738"/>
<stop offset="1" stop-color="#24588E"/>
</linearGradient>
<linearGradient id="paint1_linear_2137_57" x1="-0.946692" y1="78.0132" x2="82.4462" y2="74.6718" gradientUnits="userSpaceOnUse">
<stop stop-color="#192738"/>
<stop offset="1" stop-color="#24588E"/>
</linearGradient>
<linearGradient id="paint2_linear_2137_57" x1="-0.946692" y1="78.0132" x2="82.4462" y2="74.6718" gradientUnits="userSpaceOnUse">
<stop stop-color="#192738"/>
<stop offset="1" stop-color="#24588E"/>
</linearGradient>
<linearGradient id="paint3_linear_2137_57" x1="-0.946692" y1="78.0132" x2="82.4462" y2="74.6718" gradientUnits="userSpaceOnUse">
<stop stop-color="#192738"/>
<stop offset="1" stop-color="#24588E"/>
</linearGradient>
</defs>
</svg>
