<svg width="90" height="20" viewBox="0 0 90 20" fill="none" xmlns="http://www.w3.org/2000/svg">
<mask id="mask0" mask-type="alpha" maskUnits="userSpaceOnUse" x="0" y="0" width="90" height="20">
<path fill-rule="evenodd" clip-rule="evenodd" d="M0 0H90V20H0V0Z" fill="white"/>
</mask>
<g mask="url(#mask0)">
<path fill-rule="evenodd" clip-rule="evenodd" d="M6.06284 9.61363C8.19743 9.61363 9.56382 9.25468 10.5603 8.45344C11.4425 7.73513 11.8693 6.76845 11.8693 5.58062C11.8693 4.11636 11.2151 3.12204 10.1905 2.45901C9.08002 1.7407 7.71407 1.54762 5.40857 1.54762H1.73712L1.73668 9.61363H6.06284ZM0.000438225 0L5.52207 0.000425288C7.91303 0.000425288 9.76321 0.276862 11.2151 1.18868C12.6095 2.07243 13.6056 3.50862 13.6056 5.49769C13.606 7.3209 12.7519 8.81238 11.4425 9.72378C10.5034 10.3872 9.39335 10.7185 8.11242 10.912L15 19.9996L12.8939 20L6.17634 11.0498H1.73669L1.73625 19.9996H0L0.000438225 0Z" fill="#1B2A30"/>
<path fill-rule="evenodd" clip-rule="evenodd" d="M35.0003 6.25H36.25L36.2497 20H35L35.0003 6.25Z" fill="#1B2A30"/>
<path fill-rule="evenodd" clip-rule="evenodd" d="M41.5933 17.1643C43.1108 18.0737 45.0572 18.5556 46.9175 18.5556C49.2936 18.5556 50.8111 17.7797 50.8115 16.2014C50.8111 14.222 48.4637 14.0078 46.2599 13.6866C43.9125 13.339 41.25 12.6969 41.25 10.0218C41.2504 7.53377 43.5115 6.25 46.7179 6.25C48.5496 6.25 50.4109 6.67792 51.7851 7.37356L51.7847 9.03213C50.2963 8.14951 48.4068 7.69481 46.661 7.69481C44.4564 7.69481 42.9394 8.4168 42.9389 9.91516C42.9394 11.7607 45.2295 11.9481 47.3473 12.2694C49.8952 12.6437 52.5 13.2854 52.5 16.0675C52.5 18.6627 50.2385 20 46.832 20C44.9712 20 43.0244 19.5984 41.5933 18.8497V17.1643Z" fill="#1B2A30"/>
<path fill-rule="evenodd" clip-rule="evenodd" d="M57.7135 15.1878L57.7139 7.87627H55L55.0004 6.47819H57.7139V2.76861L59.3475 2.5V6.47861H63.75V7.87627H59.3475V14.9192C59.3475 16.9083 59.6515 18.5481 61.8116 18.5485C62.5312 18.5481 63.2235 18.3602 63.75 18.0643L63.7496 19.57C63.2235 19.8117 62.4208 20 61.5899 20C60.5932 20 59.4579 19.731 58.6825 18.8705C57.9901 18.0912 57.7135 16.9083 57.7135 15.1878Z" fill="#1B2A30"/>
<path fill-rule="evenodd" clip-rule="evenodd" d="M74.9598 17.0362V14.0729C73.938 13.7794 72.7556 13.5924 71.6799 13.5924C69.7985 13.5924 67.8628 14.1794 67.8633 16.1286C67.8628 17.8374 69.3412 18.5847 70.954 18.5851C72.4596 18.5851 73.9111 17.9443 74.9598 17.0362ZM67.6207 19.092C66.7607 18.4515 66.25 17.4905 66.25 16.2622C66.25 14.8737 66.8952 13.8859 67.9166 13.2183C68.9116 12.5779 70.2554 12.3378 71.5458 12.3374C72.7556 12.3374 73.8573 12.5244 74.9598 12.8183V11.2966C74.9598 10.0149 74.7177 9.18744 73.9922 8.5466C73.3735 8.01263 72.4601 7.71872 71.2768 7.71872C69.7182 7.71872 68.2933 8.22597 67.218 9.00041V7.42522C68.2933 6.75725 69.7716 6.25041 71.4386 6.25C73.0246 6.25041 74.3146 6.65078 75.2019 7.39851C76.0884 8.14623 76.5457 9.32063 76.5457 10.9229V16.6096C76.5453 17.7309 76.8139 18.5588 77.8896 18.5584C78.212 18.5584 78.5079 18.4787 78.75 18.3451L78.7496 19.7069C78.4541 19.8401 78.051 19.9203 77.5937 19.9203C76.4646 19.9203 75.5777 19.3863 75.2015 18.3714H75.1477C74.1532 19.226 72.5404 20 70.7392 20C69.6102 20 68.4812 19.7332 67.6207 19.092Z" fill="#1B2A30"/>
<path fill-rule="evenodd" clip-rule="evenodd" d="M83.9635 15.1883L83.9639 7.87627H81.25L81.2504 6.47861H83.9639V2.76902L85.5975 2.5V6.47861H90V7.87627H85.5975V14.9192C85.5975 16.9087 85.9015 18.5485 88.0616 18.5485C88.7812 18.5485 89.4735 18.3602 90 18.0647L89.9996 19.57C89.4735 19.8121 88.6708 20 87.8399 20C86.8432 20 85.7079 19.7314 84.9325 18.8709C84.2401 18.0916 83.9635 16.9087 83.9635 15.1883Z" fill="#1B2A30"/>
<path fill-rule="evenodd" clip-rule="evenodd" d="M26.4823 11.1697C26.8654 11.7203 27.0896 12.3933 27.0896 13.1252C27.0896 14.9979 25.6391 16.4959 23.7502 16.4959C21.8618 16.4959 20.4108 14.9975 20.4108 13.1252C20.4108 11.2529 21.8618 9.75453 23.7506 9.75453C24.5931 9.75453 25.347 10.0544 25.9252 10.5511L28.3801 7.64621C27.1246 6.76647 25.5324 6.25041 23.7506 6.25C19.4529 6.25 16.2504 9.24629 16.25 13.1252C16.25 17.0041 19.4529 20 23.7502 20C28.0475 20.0004 31.25 17.0045 31.25 13.1256C31.25 11.514 30.6962 10.0564 29.7421 8.90115L26.4823 11.1697Z" fill="#26A4F0"/>
<path fill-rule="evenodd" clip-rule="evenodd" d="M35.5474 3.75L38.75 1.33562C38.3666 0.832408 37.9173 0.383548 37.4117 0L35 3.09117C35.2075 3.28404 35.3905 3.50584 35.5474 3.75Z" fill="#26A4F0"/>
</g>
</svg>
