<svg width="105" height="87" viewBox="0 0 105 87" fill="none" xmlns="http://www.w3.org/2000/svg">
<g clip-path="url(#clip0_2059_815)">
<path d="M15.0493 49.333V63.2233C15.0493 66.8319 17.0266 70.1932 20.1902 71.9233L44.9061 85.4182C47.872 87.0495 51.4311 87.0495 54.397 85.4182L79.1129 71.9233C82.2766 70.1932 84.2538 66.8319 84.2538 63.2233V49.333L54.397 65.6455C51.4311 67.2768 47.872 67.2768 44.9061 65.6455L15.0493 49.333ZM44.9061 1.58187L3.2351 24.3205C-0.175697 26.1989 -0.175697 31.1421 3.2351 33.0205L44.9061 55.7591C47.872 57.3904 51.4311 57.3904 54.397 55.7591L94.1402 34.0586V63.2728C94.1402 65.9915 96.3646 68.216 99.0834 68.216C101.802 68.216 104.027 65.9915 104.027 63.2728V31.587C104.027 29.758 103.038 28.1268 101.456 27.237L54.397 1.58187C51.4311 5.33002e-05 47.872 5.33002e-05 44.9061 1.58187Z" fill="url(#paint0_linear_2059_815)"/>
<path d="M15.0493 49.333V63.2233C15.0493 66.8319 17.0266 70.1932 20.1902 71.9233L44.9061 85.4182C47.872 87.0495 51.4311 87.0495 54.397 85.4182L79.1129 71.9233C82.2766 70.1932 84.2538 66.8319 84.2538 63.2233V49.333L54.397 65.6455C51.4311 67.2768 47.872 67.2768 44.9061 65.6455L15.0493 49.333ZM44.9061 1.58187L3.2351 24.3205C-0.175697 26.1989 -0.175697 31.1421 3.2351 33.0205L44.9061 55.7591C47.872 57.3904 51.4311 57.3904 54.397 55.7591L94.1402 34.0586V63.2728C94.1402 65.9915 96.3646 68.216 99.0834 68.216C101.802 68.216 104.027 65.9915 104.027 63.2728V31.587C104.027 29.758 103.038 28.1268 101.456 27.237L54.397 1.58187C51.4311 5.33002e-05 47.872 5.33002e-05 44.9061 1.58187Z" fill="black" fill-opacity="0.2"/>
</g>
<defs>
<linearGradient id="paint0_linear_2059_815" x1="-7.52534" y1="69.1229" x2="96.9794" y2="64.0138" gradientUnits="userSpaceOnUse">
<stop stop-color="#192738"/>
<stop offset="1" stop-color="#24588E"/>
</linearGradient>
<clipPath id="clip0_2059_815">
<rect width="104.576" height="87" fill="white"/>
</clipPath>
</defs>
</svg>
