<svg width="102" height="87" viewBox="0 0 102 87" fill="none" xmlns="http://www.w3.org/2000/svg">
<path d="M94.6209 51.9369V8.43692C94.6209 7.98407 94.4553 7.59193 94.124 7.26049C93.7927 6.92922 93.4006 6.76359 92.9476 6.76359H9.2938C8.84068 6.76359 8.44854 6.92922 8.11738 7.26049C7.78628 7.59176 7.62073 7.9839 7.62073 8.43692V51.9369C7.62073 52.3898 7.78628 52.7819 8.11738 53.1133C8.44854 53.4446 8.84068 53.6102 9.2938 53.6102H92.9476C93.401 53.6102 93.7931 53.4446 94.124 53.1133C94.4553 52.7821 94.6209 52.3899 94.6209 51.9369ZM101.313 8.43692V65.3215C101.313 67.622 100.494 69.5914 98.8558 71.2296C97.2176 72.8678 95.2483 73.6869 92.9477 73.6869H64.5055C64.5055 74.9766 64.7844 76.3272 65.3421 77.7389C65.8997 79.1505 66.4575 80.388 67.0152 81.4511C67.5729 82.5142 67.8517 83.2723 67.8517 83.7254C67.8517 84.6316 67.5206 85.4159 66.8584 86.0781C66.1961 86.7404 65.4119 87.0715 64.5057 87.0715H37.7364C36.8302 87.0715 36.0459 86.7404 35.3837 86.0781C34.7214 85.4159 34.3903 84.6316 34.3903 83.7254C34.3903 83.2374 34.6691 82.4706 35.2268 81.4249C35.7845 80.3792 36.3422 79.1593 36.8998 77.765C37.4576 76.3708 37.7364 75.0114 37.7364 73.6869H9.29414C6.99363 73.6869 5.02426 72.8678 3.38604 71.2296C1.74782 69.5914 0.928711 67.622 0.928711 65.3215V8.43692C0.928711 6.13644 1.74782 4.16709 3.38604 2.52887C5.02426 0.890644 6.99363 0.0715332 9.29414 0.0715332H92.9479C95.2484 0.0715332 97.2178 0.890644 98.856 2.52887C100.494 4.16709 101.313 6.13644 101.313 8.43692ZM46.0705 14.2186L18.5637 28.3626L20.3803 31.8427L45.8684 18.7527L61.7397 28.9191L83.678 13.0458L81.3756 9.86605L61.6062 24.171L46.0705 14.2186ZM71.487 27.0357H79.3382V48.6267H71.487V27.0357ZM56.7659 33.9056H64.6172V48.6267H56.7659V33.9056ZM41.0624 27.0357H48.9137V48.6267H41.0624V27.0357ZM24.3785 33.9056H32.2298V48.6267H24.3785V33.9056Z" fill="url(#paint0_linear_2059_808)"/>
<path d="M94.6209 51.9369V8.43692C94.6209 7.98407 94.4553 7.59193 94.124 7.26049C93.7927 6.92922 93.4006 6.76359 92.9476 6.76359H9.2938C8.84068 6.76359 8.44854 6.92922 8.11738 7.26049C7.78628 7.59176 7.62073 7.9839 7.62073 8.43692V51.9369C7.62073 52.3898 7.78628 52.7819 8.11738 53.1133C8.44854 53.4446 8.84068 53.6102 9.2938 53.6102H92.9476C93.401 53.6102 93.7931 53.4446 94.124 53.1133C94.4553 52.7821 94.6209 52.3899 94.6209 51.9369ZM101.313 8.43692V65.3215C101.313 67.622 100.494 69.5914 98.8558 71.2296C97.2176 72.8678 95.2483 73.6869 92.9477 73.6869H64.5055C64.5055 74.9766 64.7844 76.3272 65.3421 77.7389C65.8997 79.1505 66.4575 80.388 67.0152 81.4511C67.5729 82.5142 67.8517 83.2723 67.8517 83.7254C67.8517 84.6316 67.5206 85.4159 66.8584 86.0781C66.1961 86.7404 65.4119 87.0715 64.5057 87.0715H37.7364C36.8302 87.0715 36.0459 86.7404 35.3837 86.0781C34.7214 85.4159 34.3903 84.6316 34.3903 83.7254C34.3903 83.2374 34.6691 82.4706 35.2268 81.4249C35.7845 80.3792 36.3422 79.1593 36.8998 77.765C37.4576 76.3708 37.7364 75.0114 37.7364 73.6869H9.29414C6.99363 73.6869 5.02426 72.8678 3.38604 71.2296C1.74782 69.5914 0.928711 67.622 0.928711 65.3215V8.43692C0.928711 6.13644 1.74782 4.16709 3.38604 2.52887C5.02426 0.890644 6.99363 0.0715332 9.29414 0.0715332H92.9479C95.2484 0.0715332 97.2178 0.890644 98.856 2.52887C100.494 4.16709 101.313 6.13644 101.313 8.43692ZM46.0705 14.2186L18.5637 28.3626L20.3803 31.8427L45.8684 18.7527L61.7397 28.9191L83.678 13.0458L81.3756 9.86605L61.6062 24.171L46.0705 14.2186ZM71.487 27.0357H79.3382V48.6267H71.487V27.0357ZM56.7659 33.9056H64.6172V48.6267H56.7659V33.9056ZM41.0624 27.0357H48.9137V48.6267H41.0624V27.0357ZM24.3785 33.9056H32.2298V48.6267H24.3785V33.9056Z" fill="black" fill-opacity="0.2"/>
<defs>
<linearGradient id="paint0_linear_2059_808" x1="-7.03832" y1="69.3997" x2="94.4859" y2="64.6204" gradientUnits="userSpaceOnUse">
<stop stop-color="#192738"/>
<stop offset="1" stop-color="#24588E"/>
</linearGradient>
</defs>
</svg>
