<svg width="40" height="40" viewBox="0 0 40 40" fill="none"
	xmlns="http://www.w3.org/2000/svg">
	<path d="M29.9838 12.4332C29.9285 12.2052 29.8431 12.1368 29.7069 12.0706C29.4069 11.9247 28.8622 12.0501 28.8622 12.0501C28.8622 12.0501 9.57229 16.9342 8.43678 17.5681C8.19214 17.7049 8.10674 17.7892 8.05827 17.8941C7.82286 18.4003 8.37677 18.6831 8.37677 18.6831L13.0365 20.6805C13.0365 20.6805 13.2142 20.7238 13.2812 20.6896C14.4398 20.1082 24.9433 14.8501 25.5341 14.6951C25.6264 14.6768 25.691 14.7133 25.668 14.7726C25.3633 15.5456 16.0323 22.3016 16.0323 22.3016C16.0323 22.3016 15.9953 22.3381 15.9699 22.3837L15.9584 22.3769L15.0583 27.0466C15.0583 27.0466 14.7329 28.4717 16.3323 27.1652C17.4609 26.2417 18.5387 25.4847 19.0788 25.1153C20.6251 26.3968 22.2845 27.8105 22.9907 28.5355C23.3462 28.9004 23.6624 28.9825 23.9301 28.9984C24.6617 29.0395 24.941 28.2665 24.941 28.2665C24.941 28.2665 29.633 15.0667 29.9192 13.2654C29.9469 13.0899 29.9723 12.9781 29.9862 12.855C30.0046 12.6863 30.0046 12.5153 29.9862 12.4309L29.9838 12.4332Z" fill="url(#paint0_linear_2045_148)"/>
	<circle cx="20" cy="20" r="19" stroke="url(#paint1_linear_2045_148)" stroke-width="2"/>
	<defs>
		<linearGradient id="paint0_linear_2045_148" x1="6.25397" y1="25.5469" x2="28.4911" y2="24.3728" gradientUnits="userSpaceOnUse">
			<stop stop-color="#192738"/>
			<stop offset="1" stop-color="#24588E"/>
		</linearGradient>
		<linearGradient id="paint1_linear_2045_148" x1="-3.1746" y1="31.875" x2="37.3018" y2="30.2236" gradientUnits="userSpaceOnUse">
			<stop stop-color="#192738"/>
			<stop offset="1" stop-color="#24588E"/>
		</linearGradient>
	</defs>
</svg>
