<svg width="138" height="69" viewBox="0 0 138 69" fill="none" xmlns="http://www.w3.org/2000/svg">
<path d="M0 65.7265H1.32078V62.6576H5.34119V65.7265H6.66197V58.5073H5.34119V61.4593H1.32078V58.5073H0V65.7265Z" fill="#0000AA"/>
<path d="M14.9127 64.4843V65.7265H16.2335V58.5073H14.9127V59.7056C14.7385 59.3257 13.9402 58.3319 12.3727 58.3319C10.4859 58.3319 8.87481 59.7641 8.87481 62.1169C8.87481 64.499 10.4859 65.9019 12.3727 65.9019C13.9983 65.9019 14.7385 64.8497 14.9127 64.4843ZM14.9417 62.1169C14.9417 63.5491 14.0128 64.6743 12.6194 64.6743C11.1825 64.6743 10.2391 63.5491 10.2391 62.1169C10.2391 60.6701 11.1825 59.5595 12.6194 59.5595C14.0128 59.5595 14.9417 60.6701 14.9417 62.1169Z" fill="#0000AA"/>
<path d="M24.1463 60.7578H25.4816C25.38 60.2171 24.6397 58.3319 22.0562 58.3319C20.0097 58.3319 18.4277 59.9833 18.4277 62.1169C18.4277 64.2505 20.0242 65.9019 22.0707 65.9019C24.6397 65.9019 25.3945 63.9729 25.4816 63.476H24.1753C24.0592 63.7244 23.5221 64.6743 22.0707 64.6743C20.7354 64.6743 19.792 63.5344 19.792 62.1169C19.792 60.6994 20.7354 59.5595 22.0562 59.5595C23.4786 59.5595 24.0301 60.524 24.1463 60.7578Z" fill="#0000AA"/>
<path d="M29.4146 65.7265H30.7354V59.7056H33.6383V58.5073H26.5118V59.7056H29.4146V65.7265Z" fill="#0000AA"/>
<path d="M36.7411 64.5574C36.9153 64.8935 37.7571 65.9019 39.3536 65.9019C41.2695 65.9019 42.8806 64.5136 42.8806 62.1169C42.8806 59.7495 41.2695 58.3319 39.3536 58.3319C37.7426 58.3319 36.9153 59.3841 36.7411 59.7495V58.5073H35.4348V69H36.7411V64.5574ZM36.7121 62.1169C36.7121 60.6701 37.67 59.5595 39.1214 59.5595C40.5728 59.5595 41.5307 60.6701 41.5307 62.1169C41.5307 63.5491 40.5728 64.6743 39.1214 64.6743C37.67 64.6743 36.7121 63.5491 36.7121 62.1169Z" fill="#0000AA"/>
<path d="M48.3239 58.3319C46.1758 58.3319 44.5502 59.9687 44.5502 62.1169C44.5502 64.2651 46.1758 65.9019 48.3239 65.9019C50.4575 65.9019 52.0976 64.2651 52.0976 62.1169C52.0976 59.9687 50.4575 58.3319 48.3239 58.3319ZM48.3239 64.6743C46.887 64.6743 45.9146 63.5344 45.9146 62.1169C45.9146 60.6994 46.887 59.5595 48.3239 59.5595C49.7608 59.5595 50.7333 60.6848 50.7333 62.1169C50.7333 63.5491 49.7608 64.6743 48.3239 64.6743Z" fill="#0000AA"/>
<path d="M57.7115 56.3006C57.0729 56.3006 56.7971 55.7745 56.7971 55.2484V55H55.694V55.2777C55.694 56.4468 56.3617 57.3528 57.7115 57.3528C59.0613 57.3528 59.7289 56.4468 59.7289 55.2777V55H58.6259V55.2484C58.6259 55.7891 58.3501 56.3006 57.7115 56.3006ZM54.2862 65.7265H55.6069L59.7725 60.2463V65.7265H61.0933V58.5073H59.7725L55.6069 63.9436V58.5073H54.2862V65.7265Z" fill="#0000AA"/>
<path d="M68.9726 64.5574C69.1468 64.8935 69.9886 65.9019 71.5852 65.9019C73.501 65.9019 75.1121 64.5136 75.1121 62.1169C75.1121 59.7495 73.501 58.3319 71.5852 58.3319C69.9741 58.3319 69.1468 59.3841 68.9726 59.7495V58.5073H67.6663V69H68.9726V64.5574ZM68.9436 62.1169C68.9436 60.6701 69.9015 59.5595 71.3529 59.5595C72.8043 59.5595 73.7623 60.6701 73.7623 62.1169C73.7623 63.5491 72.8043 64.6743 71.3529 64.6743C69.9015 64.6743 68.9436 63.5491 68.9436 62.1169Z" fill="#0000AA"/>
<path d="M82.8342 64.4843V65.7265H84.1549V58.5073H82.8342V59.7056C82.66 59.3257 81.8617 58.3319 80.2942 58.3319C78.4073 58.3319 76.7963 59.7641 76.7963 62.1169C76.7963 64.499 78.4073 65.9019 80.2942 65.9019C81.9198 65.9019 82.66 64.8497 82.8342 64.4843ZM82.8632 62.1169C82.8632 63.5491 81.9343 64.6743 80.5409 64.6743C79.104 64.6743 78.1606 63.5491 78.1606 62.1169C78.1606 60.6701 79.104 59.5595 80.5409 59.5595C81.9343 59.5595 82.8632 60.6701 82.8632 62.1169Z" fill="#0000AA"/>
<path d="M89.818 64.7035C88.4973 64.7035 87.8296 64.0313 87.6119 63.5198H86.2621C86.4363 64.7035 87.6409 65.9019 89.818 65.9019C91.7775 65.9019 93.0692 65.0251 93.0692 63.5929C93.0692 62.7453 92.4741 62.2192 91.7339 62.0292C92.3435 61.8539 92.8805 61.2985 92.8805 60.4509C92.8805 59.1211 91.6904 58.3173 89.7745 58.3173C87.7716 58.3173 86.6395 59.4718 86.4363 60.5386H87.728C88.0183 59.9687 88.5989 59.5157 89.7455 59.5157C90.8776 59.5157 91.5742 59.8664 91.5742 60.4948C91.5742 61.1816 91.0372 61.4885 90.1954 61.4885H88.9907V62.6576H90.1809C91.2114 62.6576 91.6904 62.9499 91.6904 63.6075C91.6904 64.4113 90.9647 64.7035 89.818 64.7035Z" fill="#0000AA"/>
<path d="M95.3764 65.7265H99.1646C100.79 65.7265 101.85 64.8789 101.85 63.5929C101.85 62.6868 101.226 62.1754 100.543 62C101.08 61.8246 101.617 61.3132 101.617 60.4071C101.617 59.0919 100.514 58.5073 99.15 58.5073H95.3764V65.7265ZM99.15 59.6764C99.8758 59.6764 100.311 59.9979 100.311 60.524C100.311 61.1816 99.8322 61.4593 99.15 61.4593H96.6972V59.6764H99.15ZM99.1936 62.6284C100.079 62.6284 100.471 63.023 100.471 63.5344C100.471 64.1921 100.035 64.5574 99.1791 64.5574H96.6972V62.6284H99.1936Z" fill="#0000AA"/>
<path d="M104.164 65.7265H105.485L109.651 60.2463V65.7265H110.971V58.5073H109.651L105.485 63.9436V58.5073H104.164V65.7265Z" fill="#0000AA"/>
<path d="M115.677 65.7265H116.998V59.7056H119.901V58.5073H112.774V59.7056H115.677V65.7265Z" fill="#0000AA"/>
<path d="M121.697 65.7265H123.018L127.184 60.2463V65.7265H128.504V58.5073H127.184L123.018 63.9436V58.5073H121.697V65.7265Z" fill="#0000AA"/>
<path d="M134.342 58.3319C132.238 58.3319 130.699 59.9248 130.699 62.1169C130.699 64.2359 132.267 65.9019 134.473 65.9019C136.882 65.9019 137.811 64.2797 137.913 63.666H136.607C136.476 63.8998 135.924 64.6743 134.473 64.6743C133.065 64.6743 132.107 63.6221 132.035 62.2777H138C138 59.9102 136.447 58.3319 134.342 58.3319ZM134.342 59.4718C135.416 59.4718 136.215 60.0856 136.534 61.167H132.122C132.398 60.1294 133.196 59.4718 134.342 59.4718Z" fill="#0000AA"/>
<path fill-rule="evenodd" clip-rule="evenodd" d="M47.5 0C46.3133 0 45.1533 0.351896 44.1666 1.01118C43.1799 1.67047 42.4109 2.60755 41.9567 3.7039C41.5026 4.80026 41.3838 6.00665 41.6153 7.17054C41.8468 8.33443 42.4182 9.40352 43.2574 10.2426C44.0965 11.0818 45.1656 11.6532 46.3295 11.8847C47.4933 12.1162 48.6998 11.9974 49.7961 11.5433C50.8925 11.0891 51.8295 10.3201 52.4888 9.33342C53.1481 8.34672 53.5 7.18669 53.5 6C53.5 4.4087 52.8679 2.88258 51.7426 1.75736C50.6174 0.632144 49.0913 0 47.5 0ZM95.2834 29.8291C101.278 23.1519 105.904 18 114.6 18C128.5 18 135.6 34.87 138 48.67H127.65C124.57 34.93 119.92 27.82 114.47 27.82C110.819 27.82 108.723 30.1255 104.569 34.6951C104.024 35.2944 103.444 35.9328 102.82 36.61C102.435 37.0281 102.044 37.4584 101.647 37.8963L101.643 37.9004L101.642 37.901C97.0008 43.0126 91.4187 49.16 83.03 49.16C68.78 49.16 62.87 33.58 61.18 18.46H71.51C73.76 33.26 78.18 39.26 83.18 39.26C86.8032 39.26 90.1585 35.5285 94.5864 30.6043C94.7658 30.4048 94.947 30.2033 95.13 30L95.2834 29.8291ZM14.1 40.22H21.67L21.65 18.5H31.5V48.72H14.07C5.80001 48.7 0.24 42.67 0 34.5V18.5H9.85V35.29C9.85 38.33 11.1 40.22 14.1 40.22ZM52.66 18.5V48.67H42.34L42.32 18.5H52.66Z" fill="#0000AA"/>
</svg>
