<svg width="40" height="40" viewBox="0 0 40 40" fill="none" xmlns="http://www.w3.org/2000/svg">
<circle cx="20" cy="20" r="19" stroke="url(#paint0_linear_2050_516)" stroke-width="2"/>
<path fill-rule="evenodd" clip-rule="evenodd" d="M31.6753 15.4628C31.8444 14.934 31.6754 14.5454 30.8708 14.5454H28.2105C27.5341 14.5454 27.2223 14.8811 27.0531 15.2512C27.0531 15.2512 25.7003 18.3445 23.7838 20.3538C23.1637 20.9354 22.8818 21.1205 22.5437 21.1205C22.3745 21.1205 22.1298 20.9354 22.1298 20.4067V15.4628C22.1298 14.8282 21.9335 14.5454 21.3697 14.5454H17.1892C16.7666 14.5454 16.5123 14.8399 16.5123 15.119C16.5123 15.7206 17.4705 15.8593 17.5693 17.5514V21.2263C17.5693 22.032 17.4142 22.1781 17.0759 22.1781C16.1741 22.1781 13.9803 19.071 12.6792 15.5156C12.4242 14.8245 12.1685 14.5454 11.4886 14.5454H8.82828C8.06817 14.5454 7.91614 14.8811 7.91614 15.2512C7.91614 15.9122 8.81806 19.1905 12.1156 23.5264C14.3139 26.4875 17.4112 28.0926 20.2296 28.0926C21.9206 28.0926 22.1298 27.7361 22.1298 27.1221V24.8841C22.1298 24.1711 22.29 24.0288 22.8255 24.0288C23.2201 24.0288 23.8965 24.2139 25.4749 25.6415C27.2786 27.3336 27.576 28.0926 28.5906 28.0926H31.2509C32.011 28.0926 32.391 27.7361 32.1718 27.0326C31.9319 26.3314 31.0707 25.3141 29.9279 24.1081C29.3078 23.4207 28.3778 22.6804 28.0959 22.3102C27.7014 21.8344 27.8141 21.6229 28.0959 21.1999C28.0959 21.1999 31.3372 16.9168 31.6753 15.4628Z" fill="url(#paint1_linear_2050_516)"/>
<defs>
<linearGradient id="paint0_linear_2050_516" x1="-3.1746" y1="31.875" x2="37.3018" y2="30.2236" gradientUnits="userSpaceOnUse">
<stop stop-color="#192738"/>
<stop offset="1" stop-color="#24588E"/>
</linearGradient>
<linearGradient id="paint1_linear_2050_516" x1="5.9862" y1="25.3409" x2="30.5025" y2="23.5455" gradientUnits="userSpaceOnUse">
<stop stop-color="#192738"/>
<stop offset="1" stop-color="#24588E"/>
</linearGradient>
</defs>
</svg>
