<svg width="148" height="34" viewBox="0 0 148 34" fill="none" xmlns="http://www.w3.org/2000/svg">
<path d="M10.024 28L0.219 0.651998H10.925L15.324 15.28L20.094 4.574H27.514L32.231 15.174L36.63 0.651998H47.283L37.531 28H29.74L23.804 15.015L17.815 28H10.024ZM58.0165 28.352C53.2165 28.352 49.8245 24.768 49.8245 19.744C49.8245 14.688 53.2165 11.136 58.0165 11.136C60.2885 11.136 62.2725 11.936 63.6805 13.312L65.2165 11.488H68.5125V28H65.2165L63.6805 26.144C62.2725 27.552 60.2885 28.352 58.0165 28.352ZM55.8405 19.744C55.8405 21.888 57.2165 23.296 59.3285 23.296C61.4405 23.296 62.8165 21.888 62.8165 19.744C62.8165 17.6 61.4405 16.192 59.3285 16.192C57.2165 16.192 55.8405 17.6 55.8405 19.744ZM72.2657 28V24.864L78.5057 16.512H72.4897V11.488H86.0897V14.592L79.8177 22.976H86.3137V28H72.2657ZM89.5782 28V24.864L95.8182 16.512H89.8022V11.488H103.402V14.592L97.1302 22.976H103.626V28H89.5782ZM115.697 28.416C110.481 28.416 107.025 25.248 107.025 20.384V11.488H113.105V20.096C113.105 22.144 114.033 23.296 115.697 23.296C117.329 23.296 118.257 22.144 118.257 20.096V11.488H124.337V20.384C124.337 25.248 120.881 28.416 115.697 28.416ZM138.966 11.136C143.798 11.136 147.222 14.688 147.222 19.744C147.222 24.768 143.894 28.352 139.222 28.352C137.43 28.352 135.862 27.84 134.582 26.944V33.888H128.502V11.488H131.734L133.27 13.28C134.71 11.936 136.694 11.136 138.966 11.136ZM134.23 19.744C134.23 21.888 135.606 23.296 137.718 23.296C139.83 23.296 141.206 21.888 141.206 19.744C141.206 17.6 139.83 16.192 137.718 16.192C135.606 16.192 134.23 17.6 134.23 19.744Z" fill="black"/>
</svg>
