<svg width="40" height="40" viewBox="0 0 40 40" fill="none"
	xmlns="http://www.w3.org/2000/svg">
	<circle cx="20" cy="20" r="19" stroke="url(#paint0_linear_2097_91)" stroke-width="2"/>
	<path fill-rule="evenodd" clip-rule="evenodd" d="M27.9403 12.0667C25.9661 10.0902 23.3408 9.00116 20.5443 9C14.7812 9 10.0897 13.6903 10.0874 19.4557C10.0874 21.2983 10.5684 23.0967 11.4827 24.683L10 30.1002L15.5429 28.6454C17.071 29.4782 18.7902 29.9173 20.5396 29.9185H20.5443C26.3062 29.9185 30.9977 25.2281 31 19.4627C31 16.6697 29.9145 14.0433 27.9403 12.0667ZM20.5443 28.1539H20.5408C18.9812 28.1527 17.4519 27.7346 16.1171 26.9414L15.8003 26.7527L12.5111 27.6158L13.3882 24.4093L13.182 24.0809C12.312 22.6972 11.8531 21.098 11.8531 19.4557C11.8554 14.6641 15.7537 10.7657 20.5478 10.7657C22.8691 10.7669 25.0506 11.6719 26.6917 13.3141C28.3316 14.9576 29.2354 17.1403 29.2343 19.4627C29.2319 24.2544 25.3336 28.1539 20.5443 28.1539ZM25.3115 21.6443C25.0494 21.5126 23.7659 20.8814 23.526 20.794C23.2872 20.7067 23.1136 20.6636 22.9389 20.9245C22.7642 21.1854 22.2634 21.7735 22.1108 21.9483C21.9582 22.123 21.8057 22.1439 21.5448 22.0135C21.2839 21.883 20.4418 21.607 19.4436 20.7171C18.6667 20.0241 18.1426 19.1692 17.99 18.9072C17.8374 18.6451 17.9737 18.5042 18.1053 18.3737C18.223 18.2572 18.3662 18.0686 18.4967 17.916C18.6271 17.7634 18.6702 17.6551 18.7576 17.4804C18.8449 17.3057 18.8018 17.1531 18.7354 17.0226C18.6702 16.891 18.1473 15.6052 17.9295 15.0822C17.7186 14.5755 17.5032 14.6431 17.3424 14.6361C17.191 14.6291 17.0163 14.6268 16.8428 14.6268C16.6681 14.6268 16.385 14.692 16.1451 14.9529C15.9052 15.215 15.2308 15.8463 15.2308 17.1321C15.2308 18.418 16.1672 19.6607 16.2977 19.8354C16.4281 20.0101 18.1403 22.6483 20.7609 23.7804C21.3852 24.0494 21.872 24.2101 22.2506 24.3313C22.876 24.5304 23.4456 24.5013 23.8963 24.4349C24.3983 24.3604 25.4419 23.8037 25.6597 23.1933C25.8775 22.583 25.8775 22.0601 25.8123 21.9506C25.7471 21.8411 25.5712 21.7747 25.3115 21.6443Z" fill="url(#paint1_linear_2097_91)"/>
	<defs>
		<linearGradient id="paint0_linear_2097_91" x1="-3.1746" y1="31.875" x2="37.3018" y2="30.2236" gradientUnits="userSpaceOnUse">
			<stop stop-color="#192738"/>
			<stop offset="1" stop-color="#24588E"/>
		</linearGradient>
		<linearGradient id="paint1_linear_2097_91" x1="8.33333" y1="25.8142" x2="29.5838" y2="24.9513" gradientUnits="userSpaceOnUse">
			<stop stop-color="#192738"/>
			<stop offset="1" stop-color="#24588E"/>
		</linearGradient>
	</defs>
</svg>
