<svg width="95" height="86" viewBox="0 0 95 86" fill="none" xmlns="http://www.w3.org/2000/svg">
<path fill-rule="evenodd" clip-rule="evenodd" d="M47.5 86C73.7335 86 95 66.7482 95 43C95 19.2518 73.7335 0 47.5 0C21.2665 0 0 19.2518 0 43C0 66.7482 21.2665 86 47.5 86ZM46.0482 62.2686H15C16.0634 48.9255 23.8581 43.3726 29.8821 39.0812C33.851 36.2537 37.0513 33.9738 37.0513 30.3743C37.0513 26.3657 33.6995 24.7971 30.1713 24.7971C25.5846 24.7971 21.88 26.1914 18.7046 27.76L16.5877 21.4857C20.1159 19.7429 25.4082 18 31.4062 18C41.1087 18 45.6954 22.88 45.6954 29.5029C45.6954 36.1763 40.6672 39.9604 35.5915 43.7803C31.2556 47.0434 26.885 50.3327 25.5846 55.4714H46.0482V62.2686ZM66.8646 51.4629H46.9303V46.2343L68.9816 18H74.8031V44.84H81.5067V51.4629H74.8031V62.2686H66.8646V51.4629ZM67.2174 30.2L55.9272 45.1886C56.4029 45.1886 57.2708 45.1534 58.2263 45.1146C59.3965 45.0671 60.6983 45.0143 61.5723 45.0143H66.8646V38.74C66.8646 36.5499 67.0039 34.2223 67.1074 32.4919C67.1687 31.4682 67.2174 30.6535 67.2174 30.2Z" fill="url(#paint0_linear_2139_61)"/>
<path fill-rule="evenodd" clip-rule="evenodd" d="M47.5 86C73.7335 86 95 66.7482 95 43C95 19.2518 73.7335 0 47.5 0C21.2665 0 0 19.2518 0 43C0 66.7482 21.2665 86 47.5 86ZM46.0482 62.2686H15C16.0634 48.9255 23.8581 43.3726 29.8821 39.0812C33.851 36.2537 37.0513 33.9738 37.0513 30.3743C37.0513 26.3657 33.6995 24.7971 30.1713 24.7971C25.5846 24.7971 21.88 26.1914 18.7046 27.76L16.5877 21.4857C20.1159 19.7429 25.4082 18 31.4062 18C41.1087 18 45.6954 22.88 45.6954 29.5029C45.6954 36.1763 40.6672 39.9604 35.5915 43.7803C31.2556 47.0434 26.885 50.3327 25.5846 55.4714H46.0482V62.2686ZM66.8646 51.4629H46.9303V46.2343L68.9816 18H74.8031V44.84H81.5067V51.4629H74.8031V62.2686H66.8646V51.4629ZM67.2174 30.2L55.9272 45.1886C56.4029 45.1886 57.2708 45.1534 58.2263 45.1146C59.3965 45.0671 60.6983 45.0143 61.5723 45.0143H66.8646V38.74C66.8646 36.5499 67.0039 34.2223 67.1074 32.4919C67.1687 31.4682 67.2174 30.6535 67.2174 30.2Z" fill="black" fill-opacity="0.2"/>
<defs>
<linearGradient id="paint0_linear_2139_61" x1="-7.53968" y1="68.5313" x2="88.5566" y2="64.2004" gradientUnits="userSpaceOnUse">
<stop stop-color="#192738"/>
<stop offset="1" stop-color="#24588E"/>
</linearGradient>
</defs>
</svg>
